# xmcd
#
# Track frame offsets:
#   150
#   18940
#   35483
#   54026
#   72558
#   89770
#   108180
#   123079
#   140009
#   159666
#   176481
#   191053
#   207008
#   224022
#
# Disc length: 3203 seconds
#
# Revision: 0
# Processed by: cddbd v1.5.1PL0 Copyright (c) Steve Scherf et al.
# Submitted via: uFREEDB ActiveX Control 1.5
#
DISCID=c90c810e
DTITLE=Leonardo - Leonardo canta grandes sucessos
DYEAR=2004
DGENRE=Latin
TTITLE0=Uma lágrima
TTITLE1=Fantasias
TTITLE2=Pouco a pouco
TTITLE3=Vem me ajudar - Mar de rosas
TTITLE4=A Desconhecida
TTITLE5=Pedaço de Mau Caminho
TTITLE6=Meu mel
TTITLE7=Ninguém Vai Tirar Você de Mim
TTITLE8=Seresteiro das Noites - Meu Ex-Amor
TTITLE9=Perto dos olhos longe do coração
TTITLE10=Só mais uma vez
TTITLE11=Ainda Queima uma Esperança
TTITLE12=Última canção
TTITLE13=Solidão de amigos
EXTD=
EXTT0=
EXTT1=
EXTT2=
EXTT3=
EXTT4=
EXTT5=
EXTT6=
EXTT7=
EXTT8=
EXTT9=
EXTT10=
EXTT11=
EXTT12=
EXTT13=
PLAYORDER=
